# xmcd
#
# Track frame offsets:
# 151
# 15713
# 35368
# 48817
# 66075
# 83018
# 95429
# 114024
# 128483
# 142312
# 155027
# 167474
# 185290
# 197393
# 214216
# 230707
# 241780
# 256139
#
# Disc length: 3600 seconds
#
#
# Revision: 0
# Processed by: cddbd v1.5PL3 Copyright (c) Steve Scherf et al.
# Submitted via: FreeRIP 2.30 
#
DISCID=e30e0e12
DTITLE=咱的台灣歌-2
DYEAR=1900
DGENRE=
TTITLE0=霧夜的燈塔
TTITLE1=酒女夢
TTITLE2=歹命阿狗兄
TTITLE3=媽媽請你也保重
TTITLE4=暗淡的月
TTITLE5=慈母淚痕
TTITLE6=給天下無情的男性
TTITLE7=流星之夜
TTITLE8=冷霜子
TTITLE9=月夜愁
TTITLE10=回鄉
TTITLE11=思慕的人
TTITLE12=雨夜花
TTITLE13=綠島之夜
TTITLE14=白牡丹
TTITLE15=孝女願望
TTITLE16=懷春曲
TTITLE17=港町十三番地
EXTD=
EXTT0=
EXTT1=
EXTT2=
EXTT3=
EXTT4=
EXTT5=
EXTT6=
EXTT7=
EXTT8=
EXTT9=
EXTT10=
EXTT11=
EXTT12=
EXTT13=
EXTT14=
EXTT15=
EXTT16=
EXTT17=
PLAYORDER=
